# MagicaVoxel @ Ephtracy

# material
mtllib Pista.mtl
usemtl palette

# normals
vn -1 0 0
vn 1 0 0
vn 0 0 1
vn 0 0 -1
vn 0 -1 0
vn 0 1 0

# texcoords
vt 0.427734 0.5
vt 0.916016 0.5
vt 0.986328 0.5

# verts
v -20 0 40
v -20 0 -40
v -20 1 40
v -20 1 -40
v 20 0 40
v 20 0 -40
v 20 1 40
v 20 1 -40
v -20 0 40
v -20 1 40
v -18 0 40
v -18 1 40
v -17 0 40
v -17 1 40
v 17 0 40
v 17 1 40
v 18 0 40
v 18 1 40
v 20 0 40
v 20 1 40
v -20 0 -40
v -20 1 -40
v -18 0 -40
v -18 1 -40
v -17 0 -40
v -17 1 -40
v 17 0 -40
v 17 1 -40
v 18 0 -40
v 18 1 -40
v 20 0 -40
v 20 1 -40
v -20 0 40
v -18 0 40
v -17 0 40
v 17 0 40
v 18 0 40
v 20 0 40
v -3 0 36
v -2 0 36
v 2 0 36
v 3 0 36
v -3 0 19
v -2 0 19
v 2 0 19
v 3 0 19
v -3 0 11
v -2 0 11
v 2 0 11
v 3 0 11
v -3 0 -9
v -2 0 -9
v 2 0 -9
v 3 0 -9
v -3 0 -18
v -2 0 -18
v 2 0 -18
v 3 0 -18
v -3 0 -35
v -2 0 -35
v 2 0 -35
v 3 0 -35
v -20 0 -40
v -18 0 -40
v -17 0 -40
v 17 0 -40
v 18 0 -40
v 20 0 -40
v -20 1 40
v -18 1 40
v -17 1 40
v 17 1 40
v 18 1 40
v 20 1 40
v -3 1 36
v -2 1 36
v 2 1 36
v 3 1 36
v -3 1 19
v -2 1 19
v 2 1 19
v 3 1 19
v -3 1 11
v -2 1 11
v 2 1 11
v 3 1 11
v -3 1 -9
v -2 1 -9
v 2 1 -9
v 3 1 -9
v -3 1 -18
v -2 1 -18
v 2 1 -18
v 3 1 -18
v -3 1 -35
v -2 1 -35
v 2 1 -35
v 3 1 -35
v -20 1 -40
v -18 1 -40
v -17 1 -40
v 17 1 -40
v 18 1 -40
v 20 1 -40

# faces
f 3/3/1 2/3/1 1/3/1
f 4/3/1 2/3/1 3/3/1
f 5/3/2 6/3/2 7/3/2
f 7/3/2 6/3/2 8/3/2
f 11/3/3 10/3/3 9/3/3
f 12/3/3 10/3/3 11/3/3
f 13/2/3 12/2/3 11/2/3
f 14/2/3 12/2/3 13/2/3
f 15/3/3 14/3/3 13/3/3
f 16/3/3 14/3/3 15/3/3
f 17/2/3 16/2/3 15/2/3
f 18/2/3 16/2/3 17/2/3
f 19/3/3 18/3/3 17/3/3
f 20/3/3 18/3/3 19/3/3
f 21/3/4 22/3/4 23/3/4
f 23/3/4 22/3/4 24/3/4
f 23/2/4 24/2/4 25/2/4
f 25/2/4 24/2/4 26/2/4
f 25/3/4 26/3/4 27/3/4
f 27/3/4 26/3/4 28/3/4
f 27/2/4 28/2/4 29/2/4
f 29/2/4 28/2/4 30/2/4
f 29/3/4 30/3/4 31/3/4
f 31/3/4 30/3/4 32/3/4
f 39/3/5 36/3/5 35/3/5
f 40/3/5 36/3/5 39/3/5
f 41/3/5 36/3/5 40/3/5
f 42/3/5 36/3/5 41/3/5
f 43/3/5 39/3/5 35/3/5
f 43/1/5 40/1/5 39/1/5
f 44/3/5 41/3/5 40/3/5
f 44/1/5 40/1/5 43/1/5
f 45/1/5 42/1/5 41/1/5
f 45/3/5 41/3/5 44/3/5
f 46/3/5 36/3/5 42/3/5
f 46/1/5 42/1/5 45/1/5
f 47/3/5 45/3/5 44/3/5
f 47/3/5 44/3/5 43/3/5
f 47/3/5 46/3/5 45/3/5
f 47/3/5 43/3/5 35/3/5
f 48/3/5 46/3/5 47/3/5
f 49/3/5 46/3/5 48/3/5
f 50/3/5 36/3/5 46/3/5
f 50/3/5 46/3/5 49/3/5
f 51/3/5 47/3/5 35/3/5
f 51/1/5 48/1/5 47/1/5
f 52/3/5 49/3/5 48/3/5
f 52/1/5 48/1/5 51/1/5
f 53/1/5 50/1/5 49/1/5
f 53/3/5 49/3/5 52/3/5
f 54/3/5 36/3/5 50/3/5
f 54/1/5 50/1/5 53/1/5
f 55/3/5 51/3/5 35/3/5
f 55/3/5 53/3/5 52/3/5
f 55/3/5 54/3/5 53/3/5
f 55/3/5 52/3/5 51/3/5
f 56/3/5 54/3/5 55/3/5
f 57/3/5 54/3/5 56/3/5
f 58/3/5 36/3/5 54/3/5
f 58/3/5 54/3/5 57/3/5
f 59/3/5 55/3/5 35/3/5
f 59/1/5 56/1/5 55/1/5
f 60/3/5 57/3/5 56/3/5
f 60/1/5 56/1/5 59/1/5
f 61/1/5 58/1/5 57/1/5
f 61/3/5 57/3/5 60/3/5
f 62/3/5 36/3/5 58/3/5
f 62/1/5 58/1/5 61/1/5
f 63/3/5 34/3/5 33/3/5
f 64/2/5 35/2/5 34/2/5
f 64/3/5 34/3/5 63/3/5
f 65/3/5 59/3/5 35/3/5
f 65/2/5 35/2/5 64/2/5
f 65/3/5 61/3/5 60/3/5
f 65/3/5 62/3/5 61/3/5
f 65/3/5 60/3/5 59/3/5
f 66/3/5 36/3/5 62/3/5
f 66/3/5 62/3/5 65/3/5
f 66/2/5 37/2/5 36/2/5
f 67/3/5 38/3/5 37/3/5
f 67/2/5 37/2/5 66/2/5
f 68/3/5 38/3/5 67/3/5
f 71/3/6 72/3/6 75/3/6
f 75/3/6 72/3/6 76/3/6
f 76/3/6 72/3/6 77/3/6
f 77/3/6 72/3/6 78/3/6
f 71/3/6 75/3/6 79/3/6
f 75/1/6 76/1/6 79/1/6
f 76/3/6 77/3/6 80/3/6
f 79/1/6 76/1/6 80/1/6
f 77/1/6 78/1/6 81/1/6
f 80/3/6 77/3/6 81/3/6
f 78/3/6 72/3/6 82/3/6
f 81/1/6 78/1/6 82/1/6
f 80/3/6 81/3/6 83/3/6
f 79/3/6 80/3/6 83/3/6
f 81/3/6 82/3/6 83/3/6
f 71/3/6 79/3/6 83/3/6
f 83/3/6 82/3/6 84/3/6
f 84/3/6 82/3/6 85/3/6
f 82/3/6 72/3/6 86/3/6
f 85/3/6 82/3/6 86/3/6
f 71/3/6 83/3/6 87/3/6
f 83/1/6 84/1/6 87/1/6
f 84/3/6 85/3/6 88/3/6
f 87/1/6 84/1/6 88/1/6
f 85/1/6 86/1/6 89/1/6
f 88/3/6 85/3/6 89/3/6
f 86/3/6 72/3/6 90/3/6
f 89/1/6 86/1/6 90/1/6
f 71/3/6 87/3/6 91/3/6
f 88/3/6 89/3/6 91/3/6
f 89/3/6 90/3/6 91/3/6
f 87/3/6 88/3/6 91/3/6
f 91/3/6 90/3/6 92/3/6
f 92/3/6 90/3/6 93/3/6
f 90/3/6 72/3/6 94/3/6
f 93/3/6 90/3/6 94/3/6
f 71/3/6 91/3/6 95/3/6
f 91/1/6 92/1/6 95/1/6
f 92/3/6 93/3/6 96/3/6
f 95/1/6 92/1/6 96/1/6
f 93/1/6 94/1/6 97/1/6
f 96/3/6 93/3/6 97/3/6
f 94/3/6 72/3/6 98/3/6
f 97/1/6 94/1/6 98/1/6
f 69/3/6 70/3/6 99/3/6
f 70/2/6 71/2/6 100/2/6
f 99/3/6 70/3/6 100/3/6
f 71/3/6 95/3/6 101/3/6
f 100/2/6 71/2/6 101/2/6
f 96/3/6 97/3/6 101/3/6
f 97/3/6 98/3/6 101/3/6
f 95/3/6 96/3/6 101/3/6
f 98/3/6 72/3/6 102/3/6
f 101/3/6 98/3/6 102/3/6
f 72/2/6 73/2/6 102/2/6
f 73/3/6 74/3/6 103/3/6
f 102/2/6 73/2/6 103/2/6
f 103/3/6 74/3/6 104/3/6
