# MagicaVoxel @ Ephtracy

# material
mtllib FrontLeftWheel.mtl
usemtl palette

# normals
vn -1 0 0
vn 1 0 0
vn 0 0 1
vn 0 0 -1
vn 0 -1 0
vn 0 1 0

# texcoords
vt 0.912109 0.5
vt 0.919922 0.5
vt 0.994141 0.5

# verts
v -1 4 2
v -1 4 -1
v -1 5 3
v -1 5 2
v -1 5 -1
v -1 5 -2
v -1 6 4
v -1 6 3
v -1 6 2
v -1 6 -1
v -1 6 -2
v -1 6 -3
v -1 7 1
v -1 7 -0
v -1 8 1
v -1 8 -0
v -1 9 4
v -1 9 3
v -1 9 2
v -1 9 -1
v -1 9 -2
v -1 9 -3
v -1 10 3
v -1 10 2
v -1 10 -1
v -1 10 -2
v -1 11 2
v -1 11 -1
v 0 7 1
v 0 7 -0
v 0 8 1
v 0 8 -0
v 1 4 2
v 1 4 -1
v 1 5 3
v 1 5 2
v 1 5 1
v 1 5 -0
v 1 5 -1
v 1 5 -2
v 1 6 4
v 1 6 3
v 1 6 2
v 1 6 1
v 1 6 -0
v 1 6 -1
v 1 6 -2
v 1 6 -3
v 1 7 3
v 1 7 2
v 1 7 1
v 1 7 -0
v 1 7 -1
v 1 7 -2
v 1 8 3
v 1 8 2
v 1 8 1
v 1 8 -0
v 1 8 -1
v 1 8 -2
v 1 9 4
v 1 9 3
v 1 9 2
v 1 9 1
v 1 9 -0
v 1 9 -1
v 1 9 -2
v 1 9 -3
v 1 10 3
v 1 10 2
v 1 10 1
v 1 10 -0
v 1 10 -1
v 1 10 -2
v 1 11 2
v 1 11 -1
v -1 6 4
v -1 9 4
v 1 6 4
v 1 9 4
v -1 5 3
v -1 6 3
v -1 9 3
v -1 10 3
v 1 5 3
v 1 6 3
v 1 9 3
v 1 10 3
v -1 4 2
v -1 5 2
v -1 10 2
v -1 11 2
v 1 4 2
v 1 5 2
v 1 10 2
v 1 11 2
v -1 7 -0
v -1 8 -0
v 0 7 -0
v 0 8 -0
v -1 7 1
v -1 8 1
v 0 7 1
v 0 8 1
v -1 4 -1
v -1 5 -1
v -1 10 -1
v -1 11 -1
v 1 4 -1
v 1 5 -1
v 1 10 -1
v 1 11 -1
v -1 5 -2
v -1 6 -2
v -1 9 -2
v -1 10 -2
v 1 5 -2
v 1 6 -2
v 1 9 -2
v 1 10 -2
v -1 6 -3
v -1 9 -3
v 1 6 -3
v 1 9 -3
v -1 4 2
v 1 4 2
v -1 4 -1
v 1 4 -1
v -1 5 3
v 1 5 3
v -1 5 2
v 1 5 2
v -1 5 -1
v 1 5 -1
v -1 5 -2
v 1 5 -2
v -1 6 4
v 1 6 4
v -1 6 3
v 1 6 3
v -1 6 -2
v 1 6 -2
v -1 6 -3
v 1 6 -3
v -1 8 1
v 0 8 1
v -1 8 -0
v 0 8 -0
v -1 7 1
v 0 7 1
v -1 7 -0
v 0 7 -0
v -1 9 4
v 1 9 4
v -1 9 3
v 1 9 3
v -1 9 -2
v 1 9 -2
v -1 9 -3
v 1 9 -3
v -1 10 3
v 1 10 3
v -1 10 2
v 1 10 2
v -1 10 -1
v 1 10 -1
v -1 10 -2
v 1 10 -2
v -1 11 2
v 1 11 2
v -1 11 -1
v 1 11 -1

# faces
f 4/3/1 2/3/1 1/3/1
f 5/3/1 2/3/1 4/3/1
f 8/3/1 4/3/1 3/3/1
f 9/2/1 5/2/1 4/2/1
f 9/3/1 4/3/1 8/3/1
f 10/3/1 6/3/1 5/3/1
f 10/2/1 5/2/1 9/2/1
f 11/3/1 6/3/1 10/3/1
f 13/2/1 9/2/1 8/2/1
f 13/2/1 10/2/1 9/2/1
f 13/2/1 11/2/1 10/2/1
f 14/2/1 11/2/1 13/2/1
f 15/2/1 13/2/1 8/2/1
f 16/2/1 11/2/1 14/2/1
f 17/3/1 8/3/1 7/3/1
f 18/2/1 16/2/1 15/2/1
f 18/3/1 8/3/1 17/3/1
f 18/2/1 15/2/1 8/2/1
f 19/2/1 16/2/1 18/2/1
f 20/2/1 11/2/1 16/2/1
f 20/2/1 16/2/1 19/2/1
f 21/3/1 12/3/1 11/3/1
f 21/2/1 11/2/1 20/2/1
f 22/3/1 12/3/1 21/3/1
f 23/3/1 19/3/1 18/3/1
f 24/2/1 20/2/1 19/2/1
f 24/3/1 19/3/1 23/3/1
f 25/3/1 21/3/1 20/3/1
f 25/2/1 20/2/1 24/2/1
f 26/3/1 21/3/1 25/3/1
f 27/3/1 25/3/1 24/3/1
f 28/3/1 25/3/1 27/3/1
f 31/3/1 30/3/1 29/3/1
f 32/3/1 30/3/1 31/3/1
f 33/3/2 34/3/2 36/3/2
f 36/3/2 34/3/2 37/3/2
f 37/3/2 34/3/2 38/3/2
f 38/3/2 34/3/2 39/3/2
f 35/3/2 36/3/2 42/3/2
f 36/2/2 37/2/2 43/2/2
f 42/3/2 36/3/2 43/3/2
f 37/1/2 38/1/2 44/1/2
f 43/2/2 37/2/2 44/2/2
f 38/2/2 39/2/2 45/2/2
f 44/1/2 38/1/2 45/1/2
f 39/3/2 40/3/2 46/3/2
f 45/2/2 39/2/2 46/2/2
f 46/3/2 40/3/2 47/3/2
f 41/3/2 42/3/2 49/3/2
f 42/2/2 43/2/2 49/2/2
f 43/1/2 44/1/2 50/1/2
f 49/2/2 43/2/2 50/2/2
f 44/2/2 45/2/2 51/2/2
f 50/1/2 44/1/2 51/1/2
f 45/1/2 46/1/2 52/1/2
f 51/2/2 45/2/2 52/2/2
f 46/2/2 47/2/2 53/2/2
f 52/1/2 46/1/2 53/1/2
f 47/3/2 48/3/2 54/3/2
f 53/2/2 47/2/2 54/2/2
f 49/1/2 50/1/2 55/1/2
f 41/3/2 49/3/2 55/3/2
f 50/2/2 51/2/2 56/2/2
f 55/1/2 50/1/2 56/1/2
f 51/3/2 52/3/2 57/3/2
f 56/2/2 51/2/2 57/2/2
f 52/2/2 53/2/2 58/2/2
f 57/3/2 52/3/2 58/3/2
f 53/1/2 54/1/2 59/1/2
f 58/2/2 53/2/2 59/2/2
f 54/3/2 48/3/2 60/3/2
f 59/1/2 54/1/2 60/1/2
f 41/3/2 55/3/2 61/3/2
f 55/2/2 56/2/2 62/2/2
f 61/3/2 55/3/2 62/3/2
f 56/1/2 57/1/2 63/1/2
f 62/2/2 56/2/2 63/2/2
f 57/2/2 58/2/2 64/2/2
f 63/1/2 57/1/2 64/1/2
f 58/1/2 59/1/2 65/1/2
f 64/2/2 58/2/2 65/2/2
f 59/2/2 60/2/2 66/2/2
f 65/1/2 59/1/2 66/1/2
f 60/3/2 48/3/2 67/3/2
f 66/2/2 60/2/2 67/2/2
f 67/3/2 48/3/2 68/3/2
f 62/3/2 63/3/2 69/3/2
f 63/2/2 64/2/2 70/2/2
f 69/3/2 63/3/2 70/3/2
f 64/1/2 65/1/2 71/1/2
f 70/2/2 64/2/2 71/2/2
f 65/2/2 66/2/2 72/2/2
f 71/1/2 65/1/2 72/1/2
f 66/3/2 67/3/2 73/3/2
f 72/2/2 66/2/2 73/2/2
f 73/3/2 67/3/2 74/3/2
f 71/3/2 72/3/2 75/3/2
f 70/3/2 71/3/2 75/3/2
f 72/3/2 73/3/2 75/3/2
f 75/3/2 73/3/2 76/3/2
f 79/3/3 78/3/3 77/3/3
f 80/3/3 78/3/3 79/3/3
f 85/3/3 82/3/3 81/3/3
f 86/3/3 82/3/3 85/3/3
f 87/3/3 84/3/3 83/3/3
f 88/3/3 84/3/3 87/3/3
f 93/3/3 90/3/3 89/3/3
f 94/3/3 90/3/3 93/3/3
f 95/3/3 92/3/3 91/3/3
f 96/3/3 92/3/3 95/3/3
f 99/2/3 98/2/3 97/2/3
f 100/2/3 98/2/3 99/2/3
f 101/2/4 102/2/4 103/2/4
f 103/2/4 102/2/4 104/2/4
f 105/3/4 106/3/4 109/3/4
f 109/3/4 106/3/4 110/3/4
f 107/3/4 108/3/4 111/3/4
f 111/3/4 108/3/4 112/3/4
f 113/3/4 114/3/4 117/3/4
f 117/3/4 114/3/4 118/3/4
f 115/3/4 116/3/4 119/3/4
f 119/3/4 116/3/4 120/3/4
f 121/3/4 122/3/4 123/3/4
f 123/3/4 122/3/4 124/3/4
f 127/3/5 126/3/5 125/3/5
f 128/3/5 126/3/5 127/3/5
f 131/3/5 130/3/5 129/3/5
f 132/3/5 130/3/5 131/3/5
f 135/3/5 134/3/5 133/3/5
f 136/3/5 134/3/5 135/3/5
f 139/3/5 138/3/5 137/3/5
f 140/3/5 138/3/5 139/3/5
f 143/3/5 142/3/5 141/3/5
f 144/3/5 142/3/5 143/3/5
f 147/2/5 146/2/5 145/2/5
f 148/2/5 146/2/5 147/2/5
f 149/2/6 150/2/6 151/2/6
f 151/2/6 150/2/6 152/2/6
f 153/3/6 154/3/6 155/3/6
f 155/3/6 154/3/6 156/3/6
f 157/3/6 158/3/6 159/3/6
f 159/3/6 158/3/6 160/3/6
f 161/3/6 162/3/6 163/3/6
f 163/3/6 162/3/6 164/3/6
f 165/3/6 166/3/6 167/3/6
f 167/3/6 166/3/6 168/3/6
f 169/3/6 170/3/6 171/3/6
f 171/3/6 170/3/6 172/3/6
