# MagicaVoxel @ Ephtracy

# material
mtllib FrontRightWheel.mtl
usemtl palette

# normals
vn -1 0 0
vn 1 0 0
vn 0 0 1
vn 0 0 -1
vn 0 -1 0
vn 0 1 0

# texcoords
vt 0.912109 0.5
vt 0.919922 0.5
vt 0.994141 0.5

# verts
v 0 4 2
v 0 4 -1
v 0 5 3
v 0 5 2
v 0 5 1
v 0 5 -0
v 0 5 -1
v 0 5 -2
v 0 6 4
v 0 6 3
v 0 6 2
v 0 6 1
v 0 6 -0
v 0 6 -1
v 0 6 -2
v 0 6 -3
v 0 7 3
v 0 7 2
v 0 7 1
v 0 7 -0
v 0 7 -1
v 0 7 -2
v 0 8 3
v 0 8 2
v 0 8 1
v 0 8 -0
v 0 8 -1
v 0 8 -2
v 0 9 4
v 0 9 3
v 0 9 2
v 0 9 1
v 0 9 -0
v 0 9 -1
v 0 9 -2
v 0 9 -3
v 0 10 3
v 0 10 2
v 0 10 1
v 0 10 -0
v 0 10 -1
v 0 10 -2
v 0 11 2
v 0 11 -1
v 1 7 1
v 1 7 -0
v 1 8 1
v 1 8 -0
v 2 4 2
v 2 4 -1
v 2 5 3
v 2 5 2
v 2 5 -1
v 2 5 -2
v 2 6 4
v 2 6 3
v 2 6 2
v 2 6 -1
v 2 6 -2
v 2 6 -3
v 2 7 1
v 2 7 -0
v 2 8 1
v 2 8 -0
v 2 9 4
v 2 9 3
v 2 9 2
v 2 9 -1
v 2 9 -2
v 2 9 -3
v 2 10 3
v 2 10 2
v 2 10 -1
v 2 10 -2
v 2 11 2
v 2 11 -1
v 0 6 4
v 0 9 4
v 2 6 4
v 2 9 4
v 0 5 3
v 0 6 3
v 0 9 3
v 0 10 3
v 2 5 3
v 2 6 3
v 2 9 3
v 2 10 3
v 0 4 2
v 0 5 2
v 0 10 2
v 0 11 2
v 2 4 2
v 2 5 2
v 2 10 2
v 2 11 2
v 1 7 -0
v 1 8 -0
v 2 7 -0
v 2 8 -0
v 1 7 1
v 1 8 1
v 2 7 1
v 2 8 1
v 0 4 -1
v 0 5 -1
v 0 10 -1
v 0 11 -1
v 2 4 -1
v 2 5 -1
v 2 10 -1
v 2 11 -1
v 0 5 -2
v 0 6 -2
v 0 9 -2
v 0 10 -2
v 2 5 -2
v 2 6 -2
v 2 9 -2
v 2 10 -2
v 0 6 -3
v 0 9 -3
v 2 6 -3
v 2 9 -3
v 0 4 2
v 2 4 2
v 0 4 -1
v 2 4 -1
v 0 5 3
v 2 5 3
v 0 5 2
v 2 5 2
v 0 5 -1
v 2 5 -1
v 0 5 -2
v 2 5 -2
v 0 6 4
v 2 6 4
v 0 6 3
v 2 6 3
v 0 6 -2
v 2 6 -2
v 0 6 -3
v 2 6 -3
v 1 8 1
v 2 8 1
v 1 8 -0
v 2 8 -0
v 1 7 1
v 2 7 1
v 1 7 -0
v 2 7 -0
v 0 9 4
v 2 9 4
v 0 9 3
v 2 9 3
v 0 9 -2
v 2 9 -2
v 0 9 -3
v 2 9 -3
v 0 10 3
v 2 10 3
v 0 10 2
v 2 10 2
v 0 10 -1
v 2 10 -1
v 0 10 -2
v 2 10 -2
v 0 11 2
v 2 11 2
v 0 11 -1
v 2 11 -1

# faces
f 4/3/1 2/3/1 1/3/1
f 5/3/1 2/3/1 4/3/1
f 6/3/1 2/3/1 5/3/1
f 7/3/1 2/3/1 6/3/1
f 10/3/1 4/3/1 3/3/1
f 11/2/1 5/2/1 4/2/1
f 11/3/1 4/3/1 10/3/1
f 12/1/1 6/1/1 5/1/1
f 12/2/1 5/2/1 11/2/1
f 13/2/1 7/2/1 6/2/1
f 13/1/1 6/1/1 12/1/1
f 14/3/1 8/3/1 7/3/1
f 14/2/1 7/2/1 13/2/1
f 15/3/1 8/3/1 14/3/1
f 17/3/1 10/3/1 9/3/1
f 17/2/1 11/2/1 10/2/1
f 18/1/1 12/1/1 11/1/1
f 18/2/1 11/2/1 17/2/1
f 19/2/1 13/2/1 12/2/1
f 19/1/1 12/1/1 18/1/1
f 20/1/1 14/1/1 13/1/1
f 20/2/1 13/2/1 19/2/1
f 21/2/1 15/2/1 14/2/1
f 21/1/1 14/1/1 20/1/1
f 22/3/1 16/3/1 15/3/1
f 22/2/1 15/2/1 21/2/1
f 23/1/1 18/1/1 17/1/1
f 23/3/1 17/3/1 9/3/1
f 24/2/1 19/2/1 18/2/1
f 24/1/1 18/1/1 23/1/1
f 25/3/1 20/3/1 19/3/1
f 25/2/1 19/2/1 24/2/1
f 26/2/1 21/2/1 20/2/1
f 26/3/1 20/3/1 25/3/1
f 27/1/1 22/1/1 21/1/1
f 27/2/1 21/2/1 26/2/1
f 28/3/1 16/3/1 22/3/1
f 28/1/1 22/1/1 27/1/1
f 29/3/1 23/3/1 9/3/1
f 30/2/1 24/2/1 23/2/1
f 30/3/1 23/3/1 29/3/1
f 31/1/1 25/1/1 24/1/1
f 31/2/1 24/2/1 30/2/1
f 32/2/1 26/2/1 25/2/1
f 32/1/1 25/1/1 31/1/1
f 33/1/1 27/1/1 26/1/1
f 33/2/1 26/2/1 32/2/1
f 34/2/1 28/2/1 27/2/1
f 34/1/1 27/1/1 33/1/1
f 35/3/1 16/3/1 28/3/1
f 35/2/1 28/2/1 34/2/1
f 36/3/1 16/3/1 35/3/1
f 37/3/1 31/3/1 30/3/1
f 38/2/1 32/2/1 31/2/1
f 38/3/1 31/3/1 37/3/1
f 39/1/1 33/1/1 32/1/1
f 39/2/1 32/2/1 38/2/1
f 40/2/1 34/2/1 33/2/1
f 40/1/1 33/1/1 39/1/1
f 41/3/1 35/3/1 34/3/1
f 41/2/1 34/2/1 40/2/1
f 42/3/1 35/3/1 41/3/1
f 43/3/1 40/3/1 39/3/1
f 43/3/1 39/3/1 38/3/1
f 43/3/1 41/3/1 40/3/1
f 44/3/1 41/3/1 43/3/1
f 45/3/2 46/3/2 47/3/2
f 47/3/2 46/3/2 48/3/2
f 49/3/2 50/3/2 52/3/2
f 52/3/2 50/3/2 53/3/2
f 51/3/2 52/3/2 56/3/2
f 52/2/2 53/2/2 57/2/2
f 56/3/2 52/3/2 57/3/2
f 53/3/2 54/3/2 58/3/2
f 57/2/2 53/2/2 58/2/2
f 58/3/2 54/3/2 59/3/2
f 56/2/2 57/2/2 61/2/2
f 57/2/2 58/2/2 61/2/2
f 58/2/2 59/2/2 61/2/2
f 61/2/2 59/2/2 62/2/2
f 56/2/2 61/2/2 63/2/2
f 62/2/2 59/2/2 64/2/2
f 55/3/2 56/3/2 65/3/2
f 63/2/2 64/2/2 66/2/2
f 65/3/2 56/3/2 66/3/2
f 56/2/2 63/2/2 66/2/2
f 66/2/2 64/2/2 67/2/2
f 64/2/2 59/2/2 68/2/2
f 67/2/2 64/2/2 68/2/2
f 59/3/2 60/3/2 69/3/2
f 68/2/2 59/2/2 69/2/2
f 69/3/2 60/3/2 70/3/2
f 66/3/2 67/3/2 71/3/2
f 67/2/2 68/2/2 72/2/2
f 71/3/2 67/3/2 72/3/2
f 68/3/2 69/3/2 73/3/2
f 72/2/2 68/2/2 73/2/2
f 73/3/2 69/3/2 74/3/2
f 72/3/2 73/3/2 75/3/2
f 75/3/2 73/3/2 76/3/2
f 79/3/3 78/3/3 77/3/3
f 80/3/3 78/3/3 79/3/3
f 85/3/3 82/3/3 81/3/3
f 86/3/3 82/3/3 85/3/3
f 87/3/3 84/3/3 83/3/3
f 88/3/3 84/3/3 87/3/3
f 93/3/3 90/3/3 89/3/3
f 94/3/3 90/3/3 93/3/3
f 95/3/3 92/3/3 91/3/3
f 96/3/3 92/3/3 95/3/3
f 99/2/3 98/2/3 97/2/3
f 100/2/3 98/2/3 99/2/3
f 101/2/4 102/2/4 103/2/4
f 103/2/4 102/2/4 104/2/4
f 105/3/4 106/3/4 109/3/4
f 109/3/4 106/3/4 110/3/4
f 107/3/4 108/3/4 111/3/4
f 111/3/4 108/3/4 112/3/4
f 113/3/4 114/3/4 117/3/4
f 117/3/4 114/3/4 118/3/4
f 115/3/4 116/3/4 119/3/4
f 119/3/4 116/3/4 120/3/4
f 121/3/4 122/3/4 123/3/4
f 123/3/4 122/3/4 124/3/4
f 127/3/5 126/3/5 125/3/5
f 128/3/5 126/3/5 127/3/5
f 131/3/5 130/3/5 129/3/5
f 132/3/5 130/3/5 131/3/5
f 135/3/5 134/3/5 133/3/5
f 136/3/5 134/3/5 135/3/5
f 139/3/5 138/3/5 137/3/5
f 140/3/5 138/3/5 139/3/5
f 143/3/5 142/3/5 141/3/5
f 144/3/5 142/3/5 143/3/5
f 147/2/5 146/2/5 145/2/5
f 148/2/5 146/2/5 147/2/5
f 149/2/6 150/2/6 151/2/6
f 151/2/6 150/2/6 152/2/6
f 153/3/6 154/3/6 155/3/6
f 155/3/6 154/3/6 156/3/6
f 157/3/6 158/3/6 159/3/6
f 159/3/6 158/3/6 160/3/6
f 161/3/6 162/3/6 163/3/6
f 163/3/6 162/3/6 164/3/6
f 165/3/6 166/3/6 167/3/6
f 167/3/6 166/3/6 168/3/6
f 169/3/6 170/3/6 171/3/6
f 171/3/6 170/3/6 172/3/6
